# xmcd
#
# Track frame offsets:
#	150
#	14809
#	27972
#	44197
#	63915
#	75497
#	90630
#	106060
#	122310
#	137805
#	154532
#	171417
#	189615
#	207435
#	223667
#	236025
#	251820
#	269687
#	284050
#	297845
#	310015
#
# Disc length: 4334 seconds
#
# Revision: 1
# Processed by: cddbd v1.5.1PL0 Copyright (c) Steve Scherf et al.
# Submitted via: audiograbber 1.83.01
#
DISCID=4010ec15
DTITLE=Various Artist - RC33
DYEAR=1995
DGENRE=Country
TTITLE0=George Strait - Check Yes Or No
TTITLE1=Brooks and Dunn - Whiskey Under The Bridge
TTITLE2=Lorrie Morgan - Back In Your Arms Again
TTITLE3=Vince Gill - Go Rest High On That Mountain
TTITLE4=Alan Jackson - Tall Tall Trees
TTITLE5=Aaron Tippin - That's As Close As I'll Get To Loving You
TTITLE6=Tim McGraw - Can't Be Really Done
TTITLE7=Jeff Carson - The Car
TTITLE8=Pam Tillis - Deep Down
TTITLE9=Mavericks - Here Comes The Rain
TTITLE10=Travis Tritt - Sometimes She Forgets
TTITLE11=Bryan White - Rebecca Lynn
TTITLE12=Tracy Byrd - Love Lessons
TTITLE13=Alabama - In Pictures
TTITLE14=Little Texas - Life Goes On
TTITLE15=Lonestar - Tequila Talkin'
TTITLE16=Shania Twain - The Woman In Me (Needs The Man In You)
TTITLE17=Kenny Chesney - All I Need To Know
TTITLE18=Clint Black - Life Gets Away
TTITLE19=Clay Walker - Who Needs You Baby
TTITLE20=Dolly Parton ft. Vince Gill - I Will Always Love You
EXTD=
EXTT0=
EXTT1=
EXTT2=
EXTT3=
EXTT4=
EXTT5=
EXTT6=
EXTT7=
EXTT8=
EXTT9=
EXTT10=
EXTT11=
EXTT12=
EXTT13=
EXTT14=
EXTT15=
EXTT16=
EXTT17=
EXTT18=
EXTT19=
EXTT20=
PLAYORDER=
